<?xml version="1.0" encoding="utf-8"?>
<!-- Generator: Adobe Illustrator 24.0.2, SVG Export Plug-In . SVG Version: 6.00 Build 0)  -->
<svg version="1.1" id="Layer_1" xmlns="http://www.w3.org/2000/svg" xmlns:xlink="http://www.w3.org/1999/xlink" x="0px" y="0px"
	 viewBox="0 0 708.7 708.7" style="enable-background:new 0 0 708.7 708.7;" xml:space="preserve">
<style type="text/css">
	.st0{fill:#00313A;stroke:#000000;stroke-width:0.75;stroke-miterlimit:10;}
	.st1{fill:#FFFFFF;stroke:#FFFFFF;stroke-miterlimit:10;}
	.st2{fill:#FFFFFF;}
	.st3{fill:none;stroke:#000000;stroke-miterlimit:10;}
	.st4{fill:none;}
</style>
<path class="st0" d="M538.6,680.3H28.3V170.1C28.3,91.8,91.8,28.4,170,28.4h510.2v510.2C680.3,616.9,616.9,680.3,538.6,680.3z"/>
<rect x="168.8" y="110.2" class="st1" width="101.4" height="510.1"/>
<g>
	<g id="XMLID_1_">
		<g>
			<path class="st2" d="M347.6,110.2c129.8,0,234.8,112.4,234.8,251.3c0,143.1-105,258.9-234.8,258.9H346v-97.1
				c72.6,0,132.1-62.8,138.7-143.1c0.4-4.9,0.6-9.8,0.6-14.8c0-7.3-0.4-14.5-1.3-21.6c-9.2-77.1-66.7-136.4-136.4-136.4L347.6,110.2
				L347.6,110.2z"/>
			<rect x="291.5" y="523.3" class="st2" width="33.3" height="97.1"/>
			<rect x="291.5" y="111" class="st2" width="33.3" height="97.1"/>
		</g>
		<g>
			<path class="st3" d="M347.6,207.3v-97.1c129.8,0,234.8,112.4,234.8,251.3"/>
			<path class="st3" d="M582.4,361.5c0,143.1-105,258.9-234.8,258.9"/>
			<line class="st3" x1="346" y1="620.4" x2="346" y2="523.3"/>
			<path class="st3" d="M484.7,380.1c-6.6,80.3-66.1,143.1-138.7,143.1"/>
			<path class="st3" d="M484.7,380.1c0.4-4.9,0.6-9.8,0.6-14.8"/>
			<path class="st3" d="M484,343.7c-9.2-77.1-66.7-136.4-136.4-136.4"/>
			<path class="st3" d="M485.3,365.3c0-7.3-0.4-14.5-1.3-21.6"/>
			<rect x="291.5" y="111" class="st4" width="33.3" height="97.1"/>
			<rect x="291.5" y="523.3" class="st4" width="33.3" height="97.1"/>
		</g>
	</g>
</g>
</svg>
