<?xml version="1.0" encoding="utf-8"?>
<!-- Generator: Adobe Illustrator 24.0.2, SVG Export Plug-In . SVG Version: 6.00 Build 0)  -->
<svg version="1.1" id="Layer_1" xmlns="http://www.w3.org/2000/svg" xmlns:xlink="http://www.w3.org/1999/xlink" x="0px" y="0px"
	 viewBox="0 0 50 50" style="enable-background:new 0 0 50 50;" xml:space="preserve">
<style type="text/css">
	.st0{fill:#FFFFFF;}
</style>
<path class="st0" d="M25,4.5c6.7,0,7.5,0,10.1,0.1C41.9,5,45,8.2,45.4,14.9c0.1,2.6,0.1,3.4,0.1,10.1c0,6.7,0,7.5-0.1,10.1
	C45,41.8,41.9,45,35.1,45.4c-2.6,0.1-3.4,0.1-10.1,0.1c-6.7,0-7.5,0-10.1-0.1C8.1,45,5,41.8,4.6,35.1C4.5,32.5,4.5,31.7,4.5,25
	c0-6.7,0-7.5,0.1-10.1C5,8.2,8.1,5,14.9,4.7C17.5,4.5,18.3,4.5,25,4.5z M25,0c-6.8,0-7.6,0-10.3,0.1C5.6,0.6,0.6,5.6,0.2,14.7
	C0,17.4,0,18.2,0,25s0,7.6,0.2,10.3c0.4,9.1,5.5,14.1,14.5,14.5C17.4,50,18.2,50,25,50s7.6,0,10.3-0.2c9.1-0.4,14.1-5.5,14.5-14.5
	C50,32.6,50,31.8,50,25s0-7.6-0.2-10.3C49.4,5.6,44.4,0.6,35.3,0.2C32.6,0,31.8,0,25,0z M25,12.2c-7.1,0-12.8,5.7-12.8,12.8
	S17.9,37.8,25,37.8S37.8,32.1,37.8,25C37.8,17.9,32.1,12.2,25,12.2z M25,33.3c-4.6,0-8.3-3.7-8.3-8.3c0-4.6,3.7-8.3,8.3-8.3
	s8.3,3.7,8.3,8.3C33.3,29.6,29.6,33.3,25,33.3z M38.3,8.7c-1.7,0-3,1.3-3,3s1.3,3,3,3c1.7,0,3-1.3,3-3S40,8.7,38.3,8.7z"/>
</svg>
