<?xml version="1.0" encoding="utf-8"?>
<!-- Generator: Adobe Illustrator 24.0.2, SVG Export Plug-In . SVG Version: 6.00 Build 0)  -->
<svg version="1.1" id="Layer_1" xmlns="http://www.w3.org/2000/svg" xmlns:xlink="http://www.w3.org/1999/xlink" x="0px" y="0px"
	 viewBox="0 0 50 50" style="enable-background:new 0 0 50 50;" xml:space="preserve">
<style type="text/css">
	.st0{fill:#FFFFFF;}
</style>
<path class="st0" d="M39.6,0H10.4C4.7,0,0,4.7,0,10.4v29.2C0,45.3,4.7,50,10.4,50h29.2C45.3,50,50,45.3,50,39.6V10.4
	C50,4.7,45.3,0,39.6,0z M16.7,39.6h-6.2V16.7h6.2V39.6z M13.5,14c-2,0-3.6-1.6-3.6-3.7s1.6-3.7,3.6-3.7s3.6,1.6,3.6,3.7
	S15.6,14,13.5,14z M41.7,39.6h-6.3V27.9c0-7-8.3-6.5-8.3,0v11.7h-6.3V16.7h6.3v3.7c2.9-5.4,14.6-5.8,14.6,5.2V39.6z"/>
</svg>
